<?xml version="1.0" standalone="no"?>
<!DOCTYPE svg PUBLIC "-//W3C//DTD SVG 20010904//EN"
 "http://www.w3.org/TR/2001/REC-SVG-20010904/DTD/svg10.dtd">
<svg version="1.0" xmlns="http://www.w3.org/2000/svg"
 width="500.000000pt" height="500.000000pt" viewBox="0 0 500.000000 500.000000"
 preserveAspectRatio="xMidYMid meet">
<metadata>
Created by potrace 1.14, written by Peter Selinger 2001-2017
</metadata>
<g transform="translate(0.000000,500.000000) scale(0.100000,-0.100000)"
fill="#000000" stroke="none">
<path d="M965 3015 c-22 -8 -41 -15 -42 -15 -9 0 -1 -36 11 -49 12 -14 5 -46
-55 -241 -49 -162 -74 -230 -90 -242 -12 -10 -19 -24 -15 -33 4 -12 28 -15
129 -15 133 0 160 9 130 42 -15 16 -14 25 12 113 16 52 37 109 47 125 17 29
51 40 62 22 3 -5 -10 -54 -30 -110 -38 -111 -38 -140 3 -172 74 -58 223 -14
223 66 0 23 -2 25 -15 14 -28 -23 -29 -1 -6 78 45 146 46 156 25 198 -35 72
-138 81 -213 18 l-30 -25 25 78 c30 99 30 117 -2 142 -32 25 -108 28 -169 6z"/>
<path d="M3005 3021 c-72 -18 -115 -62 -122 -124 -5 -42 -8 -46 -39 -52 -40
-7 -45 -32 -14 -60 28 -25 25 -50 -16 -184 -27 -85 -43 -121 -62 -137 -44 -36
-22 -44 118 -44 138 0 151 5 129 46 -10 20 -10 33 4 77 8 28 28 91 42 138 l27
87 39 6 c24 4 42 14 50 27 15 29 0 42 -59 49 -45 5 -47 7 -50 38 -4 37 20 82
43 82 10 0 15 -10 15 -28 0 -41 33 -67 85 -67 110 0 113 114 4 145 -38 11
-149 12 -194 1z"/>
<path d="M4600 3018 c-19 -5 -41 -16 -49 -23 -13 -13 -12 -17 4 -35 18 -20 18
-23 1 -75 l-17 -54 -34 15 c-141 58 -295 -79 -295 -262 0 -109 58 -171 151
-162 33 4 58 13 74 28 l24 23 33 -28 c29 -24 38 -27 90 -23 47 3 64 10 88 33
36 34 42 80 10 70 -12 -4 -20 -2 -20 5 0 6 27 100 60 208 67 219 71 253 38
276 -25 18 -103 20 -158 4z m-81 -250 c0 -7 -17 -62 -37 -123 -31 -93 -40
-110 -59 -113 -22 -3 -23 0 -23 52 0 59 27 145 56 177 19 21 64 26 63 7z"/>
<path d="M504 2849 c-60 -14 -144 -68 -180 -116 -37 -49 -60 -134 -50 -187 9
-45 45 -88 93 -112 58 -27 193 -25 258 4 60 27 119 82 148 137 30 56 31 168 2
207 -43 59 -173 91 -271 67z m96 -99 c0 -42 -56 -213 -80 -243 -31 -39 -54
-25 -47 28 8 56 53 195 72 223 24 33 55 29 55 -8z"/>
<path d="M1527 2846 c-62 -17 -76 -30 -59 -56 18 -29 16 -42 -28 -182 -28 -87
-47 -132 -61 -142 -13 -9 -19 -21 -16 -30 5 -13 27 -16 130 -16 135 0 156 7
131 44 -12 20 -11 33 17 122 35 114 52 144 79 144 32 0 32 -18 -1 -103 -50
-129 -40 -182 38 -208 79 -26 183 21 183 83 0 26 -2 29 -15 18 -27 -23 -28 -2
-5 80 25 89 51 130 81 130 26 0 24 -21 -11 -118 -16 -46 -30 -94 -30 -108 0
-34 48 -81 92 -89 76 -14 168 35 168 91 0 23 -2 25 -15 14 -31 -26 -32 6 -4
95 38 119 38 172 1 208 -55 52 -136 44 -204 -21 -21 -20 -39 -34 -40 -31 -2 2
-10 18 -18 34 -34 65 -142 68 -213 5 l-33 -29 -11 30 c-18 47 -67 59 -156 35z"/>
<path d="M2370 2838 c-43 -22 -70 -56 -85 -107 -6 -21 -5 -23 14 -18 29 7 36
-11 56 -141 17 -117 35 -159 70 -168 34 -8 31 -19 -9 -38 -46 -21 -55 -20 -62
8 -9 35 -47 67 -83 68 -44 1 -71 -26 -71 -74 0 -48 30 -81 90 -99 36 -11 52
-10 108 4 36 10 87 31 114 48 152 98 286 338 258 462 -10 46 -23 63 -55 71
-88 22 -138 -111 -74 -197 l22 -30 -22 -43 c-23 -42 -48 -62 -61 -47 -4 4 -14
60 -23 124 -18 133 -30 165 -68 185 -39 20 -68 18 -119 -8z"/>
<path d="M3354 2849 c-60 -14 -144 -68 -180 -116 -37 -49 -60 -134 -50 -187 9
-45 45 -88 93 -112 58 -27 193 -25 258 4 60 27 119 82 148 137 30 56 31 168 2
207 -43 59 -173 91 -271 67z m96 -99 c0 -42 -56 -213 -80 -243 -31 -39 -54
-25 -47 28 8 56 53 195 72 223 24 33 55 29 55 -8z"/>
<path d="M3903 2850 c-92 -19 -171 -79 -210 -157 -52 -108 -30 -204 57 -253
38 -20 59 -24 130 -24 71 -1 94 4 141 25 106 50 161 128 167 239 4 82 -18 122
-82 151 -52 23 -144 31 -203 19z m87 -105 c0 -49 -55 -216 -81 -244 -19 -21
-23 -21 -37 -7 -14 14 -13 23 7 98 31 119 65 188 90 188 17 0 21 -6 21 -35z"/>
</g>
</svg>
